<svg xmlns="http://www.w3.org/2000/svg" width="46" height="66" viewBox="0 0 46 66"><defs><mask id="4pc7b" width="2.04" height="2.02" x="-1.02" y="-1.01"><path fill="#fff" d="M13.6 13.6h18.8v38.8H13.6z"></path><path d="M31.986 14.004c-.007.121-.02.242-.02.363-.001 1.95-.006 3.902.005 5.853.003.273-.08.34-.347.337-1.076-.01-2.152-.009-3.228.01a6.743 6.743 0 0 0-1.096.13c-.679.127-1.173.67-1.202 1.423-.052 1.374-.046 2.75-.071 4.123-.005.25.165.209.312.209H31.995l-.699 6.541h-5.261v.41l-.007 18.259c0 .11-.006.221-.01.332H18.82c.002-.566.006-1.132.006-1.699V33.486v-.484H14.03c-.007-.133-.018-.231-.018-.33-.001-1.961.005-3.923-.007-5.885-.001-.27.081-.34.349-.338 1.374.011 2.748-.003 4.121.01.293.004.356-.092.357-.362.008-1.76 0-3.52.063-5.277.047-1.28.318-2.526.92-3.68.66-1.27 1.686-2.135 3.05-2.561.755-.237 1.555-.34 2.334-.502.11-.022.218-.048.326-.073h6.46z"></path></mask><filter id="4pc7a" width="78" height="98" x="-16" y="-16" filterUnits="userSpaceOnUse"><feOffset in="SourceGraphic" result="FeOffset1041Out"></feOffset><feGaussianBlur in="FeOffset1041Out" result="FeGaussianBlur1042Out" stdDeviation="7.840000000000001 7.840000000000001"></feGaussianBlur></filter><filter id="4pc7c" width="200%" height="200%" x="-50%" y="-50%"><feGaussianBlur in="SourceGraphic" result="FeGaussianBlur1053Out" stdDeviation="0 0"></feGaussianBlur></filter><mask id="4pc7d"><path fill="#fff" d="M31.986 14.004c-.007.121-.02.242-.02.363-.001 1.95-.006 3.902.005 5.853.003.273-.08.34-.347.337-1.076-.01-2.152-.009-3.228.01a6.743 6.743 0 0 0-1.096.13c-.679.127-1.173.67-1.202 1.423-.052 1.374-.046 2.75-.071 4.123-.005.25.165.209.312.209H31.995l-.699 6.541h-5.261v.41l-.007 18.259c0 .11-.006.221-.01.332H18.82c.002-.566.006-1.132.006-1.699V33.486v-.484H14.03c-.007-.133-.018-.231-.018-.33-.001-1.961.005-3.923-.007-5.885-.001-.27.081-.34.349-.338 1.374.011 2.748-.003 4.121.01.293.004.356-.092.357-.362.008-1.76 0-3.52.063-5.277.047-1.28.318-2.526.92-3.68.66-1.27 1.686-2.135 3.05-2.561.755-.237 1.555-.34 2.334-.502.11-.022.218-.048.326-.073h6.46z"></path></mask></defs><g><g><g filter="url(#4pc7a)"><path fill="none" stroke="#2592ee" stroke-opacity=".3" stroke-width=".8" d="M31.986 14.004c-.007.121-.02.242-.02.363-.001 1.95-.006 3.902.005 5.853.003.273-.08.34-.347.337-1.076-.01-2.152-.009-3.228.01a6.743 6.743 0 0 0-1.096.13c-.679.127-1.173.67-1.202 1.423-.052 1.374-.046 2.75-.071 4.123-.005.25.165.209.312.209H31.995l-.699 6.541h-5.261v.41l-.007 18.259c0 .11-.006.221-.01.332H18.82c.002-.566.006-1.132.006-1.699V33.486v-.484H14.03c-.007-.133-.018-.231-.018-.33-.001-1.961.005-3.923-.007-5.885-.001-.27.081-.34.349-.338 1.374.011 2.748-.003 4.121.01.293.004.356-.092.357-.362.008-1.76 0-3.52.063-5.277.047-1.28.318-2.526.92-3.68.66-1.27 1.686-2.135 3.05-2.561.755-.237 1.555-.34 2.334-.502.11-.022.218-.048.326-.073h6.46z" mask="url(&quot;#4pc7b&quot;)"></path><path fill="#2592ee" fill-opacity=".3" d="M31.986 14.004c-.007.121-.02.242-.02.363-.001 1.95-.006 3.902.005 5.853.003.273-.08.34-.347.337-1.076-.01-2.152-.009-3.228.01a6.743 6.743 0 0 0-1.096.13c-.679.127-1.173.67-1.202 1.423-.052 1.374-.046 2.75-.071 4.123-.005.25.165.209.312.209H31.995l-.699 6.541h-5.261v.41l-.007 18.259c0 .11-.006.221-.01.332H18.82c.002-.566.006-1.132.006-1.699V33.486v-.484H14.03c-.007-.133-.018-.231-.018-.33-.001-1.961.005-3.923-.007-5.885-.001-.27.081-.34.349-.338 1.374.011 2.748-.003 4.121.01.293.004.356-.092.357-.362.008-1.76 0-3.52.063-5.277.047-1.28.318-2.526.92-3.68.66-1.27 1.686-2.135 3.05-2.561.755-.237 1.555-.34 2.334-.502.11-.022.218-.048.326-.073h6.46z"></path></g><g filter="url(#4pc7a)"><path fill="none" stroke="#2592ee" stroke-opacity=".3" stroke-width=".8" d="M31.986 14.004c-.007.121-.02.242-.02.363-.001 1.95-.006 3.902.005 5.853.003.273-.08.34-.347.337-1.076-.01-2.152-.009-3.228.01a6.743 6.743 0 0 0-1.096.13c-.679.127-1.173.67-1.202 1.423-.052 1.374-.046 2.75-.071 4.123-.005.25.165.209.312.209H31.995l-.699 6.541h-5.261v.41l-.007 18.259c0 .11-.006.221-.01.332H18.82c.002-.566.006-1.132.006-1.699V33.486v-.484H14.03c-.007-.133-.018-.231-.018-.33-.001-1.961.005-3.923-.007-5.885-.001-.27.081-.34.349-.338 1.374.011 2.748-.003 4.121.01.293.004.356-.092.357-.362.008-1.76 0-3.52.063-5.277.047-1.28.318-2.526.92-3.68.66-1.27 1.686-2.135 3.05-2.561.755-.237 1.555-.34 2.334-.502.11-.022.218-.048.326-.073h6.46z" mask="url(&quot;#4pc7b&quot;)"></path><path fill="#2592ee" fill-opacity=".3" d="M31.986 14.004c-.007.121-.02.242-.02.363-.001 1.95-.006 3.902.005 5.853.003.273-.08.34-.347.337-1.076-.01-2.152-.009-3.228.01a6.743 6.743 0 0 0-1.096.13c-.679.127-1.173.67-1.202 1.423-.052 1.374-.046 2.75-.071 4.123-.005.25.165.209.312.209H31.995l-.699 6.541h-5.261v.41l-.007 18.259c0 .11-.006.221-.01.332H18.82c.002-.566.006-1.132.006-1.699V33.486v-.484H14.03c-.007-.133-.018-.231-.018-.33-.001-1.961.005-3.923-.007-5.885-.001-.27.081-.34.349-.338 1.374.011 2.748-.003 4.121.01.293.004.356-.092.357-.362.008-1.76 0-3.52.063-5.277.047-1.28.318-2.526.92-3.68.66-1.27 1.686-2.135 3.05-2.561.755-.237 1.555-.34 2.334-.502.11-.022.218-.048.326-.073h6.46z"></path></g><path fill="#386fbb" d="M31.986 14.004c-.007.121-.02.242-.02.363-.001 1.95-.006 3.902.005 5.853.003.273-.08.34-.347.337-1.076-.01-2.152-.009-3.228.01a6.743 6.743 0 0 0-1.096.13c-.679.127-1.173.67-1.202 1.423-.052 1.374-.046 2.75-.071 4.123-.005.25.165.209.312.209H31.995l-.699 6.541h-5.261v.41l-.007 18.259c0 .11-.006.221-.01.332H18.82c.002-.566.006-1.132.006-1.699V33.486v-.484H14.03c-.007-.133-.018-.231-.018-.33-.001-1.961.005-3.923-.007-5.885-.001-.27.081-.34.349-.338 1.374.011 2.748-.003 4.121.01.293.004.356-.092.357-.362.008-1.76 0-3.52.063-5.277.047-1.28.318-2.526.92-3.68.66-1.27 1.686-2.135 3.05-2.561.755-.237 1.555-.34 2.334-.502.11-.022.218-.048.326-.073h6.46z"></path><path fill="#fff" fill-opacity=".27" d="M14 53V13h18v40zm17.986-37.996h-6.46c-.109.025-.217.05-.327.073-.78.163-1.579.265-2.334.502-1.364.426-2.39 1.291-3.05 2.56-.602 1.155-.873 2.4-.92 3.68-.064 1.758-.055 3.519-.063 5.278-.001.27-.064.366-.357.363-1.373-.014-2.747 0-4.121-.011-.268-.002-.35.067-.349.338.012 1.962.006 3.924.007 5.885 0 .099.01.197.018.33h4.797V51.296c0 .566-.005 1.132-.007 1.698h7.198c.004-.11.01-.222.01-.332l.007-18.26v-.409h5.261l.699-6.54h-.397l-5.259-.001c-.147 0-.317.042-.312-.209.025-1.373.019-2.749.071-4.123.029-.753.523-1.296 1.202-1.422.361-.067.73-.124 1.096-.13 1.076-.02 2.152-.021 3.228-.01.267.002.35-.065.347-.338-.01-1.951-.006-3.903-.005-5.853 0-.12.013-.242.02-.363z" filter="url(#4pc7c)" mask="url(&quot;#4pc7d&quot;)"></path></g></g></svg>