<svg xmlns="http://www.w3.org/2000/svg" width="69" height="69" viewBox="0 0 69 69"><defs><mask id="7ue8b" width="2" height="2" x="-1" y="-1"><path fill="#fff" d="M14 14h41v41H14z"></path><path d="M14.003 42.767V26.331c.064-.47.162-.937.19-1.407.312-5.303 3.683-9.313 8.823-10.426 1.092-.235 2.213-.333 3.322-.494h16.446c.435.065.867.163 1.304.187 6.093.334 10.637 4.727 10.788 10.802.16 6.394.165 12.796-.006 19.189-.161 5.974-4.689 10.502-10.666 10.663-6.432.172-12.872.157-19.305.001-5.312-.127-9.35-3.698-10.422-8.845-.22-1.065-.32-2.156-.474-3.234zm20.57 8.444v-.013c3.014 0 6.03.075 9.04-.021 2.453-.081 4.632-.925 6.135-3.012 1.014-1.407 1.453-3.036 1.466-4.733.043-5.853.11-11.706-.003-17.556-.098-5.013-2.904-7.855-7.892-7.967a392.57 392.57 0 0 0-17.462-.001c-5.038.112-7.838 2.895-7.947 7.902a401.8 401.8 0 0 0 .003 17.554c.106 4.869 2.972 7.664 7.826 7.828 2.942.099 5.888.019 8.833.019zm-.105-6.133c-5.892-.055-10.527-4.777-10.457-10.647.072-5.889 4.802-10.505 10.68-10.423 5.852.08 10.44 4.755 10.406 10.595-.036 5.883-4.753 10.533-10.629 10.475zm6.902-10.513c.004-3.827-2.997-6.833-6.82-6.83-3.824.003-6.816 3.012-6.807 6.84a6.752 6.752 0 0 0 6.766 6.78c3.832.014 6.856-2.981 6.86-6.79zm4.14-13.428c1.412-.008 2.463 1.029 2.468 2.433.003 1.374-1.092 2.494-2.444 2.498-1.328.003-2.495-1.148-2.505-2.472-.01-1.346 1.106-2.453 2.48-2.459z"></path></mask><filter id="7ue8a" width="97" height="97" x="-14" y="-14" filterUnits="userSpaceOnUse"><feOffset in="SourceGraphic" result="FeOffset1103Out"></feOffset><feGaussianBlur in="FeOffset1103Out" result="FeGaussianBlur1104Out" stdDeviation="7.2 7.2"></feGaussianBlur></filter><linearGradient id="7ue8c" x1="21" x2="48" y1="54.97" y2="14" gradientUnits="userSpaceOnUse"><stop offset="0" stop-color="#f3c834" stop-opacity=".8"></stop><stop offset=".46" stop-color="#f334c4" stop-opacity=".8"></stop><stop offset="1" stop-color="#a821e0" stop-opacity=".8"></stop></linearGradient><filter id="7ue8d" width="200%" height="200%" x="-50%" y="-50%"><feGaussianBlur in="SourceGraphic" result="FeGaussianBlur1132Out" stdDeviation="0 0"></feGaussianBlur></filter><mask id="7ue8e"><path fill="#fff" d="M14.003 42.767V26.331c.064-.47.162-.937.19-1.407.312-5.303 3.683-9.313 8.823-10.426 1.092-.235 2.213-.333 3.322-.494h16.446c.435.065.867.163 1.304.187 6.093.334 10.637 4.727 10.788 10.802.16 6.394.165 12.796-.006 19.189-.161 5.974-4.689 10.502-10.666 10.663-6.432.172-12.872.157-19.305.001-5.312-.127-9.35-3.698-10.422-8.845-.22-1.065-.32-2.156-.474-3.234zm20.57 8.444v-.013c3.014 0 6.03.075 9.04-.021 2.453-.081 4.632-.925 6.135-3.012 1.014-1.407 1.453-3.036 1.466-4.733.043-5.853.11-11.706-.003-17.556-.098-5.013-2.904-7.855-7.892-7.967a392.57 392.57 0 0 0-17.462-.001c-5.038.112-7.838 2.895-7.947 7.902a401.8 401.8 0 0 0 .003 17.554c.106 4.869 2.972 7.664 7.826 7.828 2.942.099 5.888.019 8.833.019zm-.105-6.133c-5.892-.055-10.527-4.777-10.457-10.647.072-5.889 4.802-10.505 10.68-10.423 5.852.08 10.44 4.755 10.406 10.595-.036 5.883-4.753 10.533-10.629 10.475zm6.902-10.513c.004-3.827-2.997-6.833-6.82-6.83-3.824.003-6.816 3.012-6.807 6.84a6.752 6.752 0 0 0 6.766 6.78c3.832.014 6.856-2.981 6.86-6.79zm4.14-13.428c1.412-.008 2.463 1.029 2.468 2.433.003 1.374-1.092 2.494-2.444 2.498-1.328.003-2.495-1.148-2.505-2.472-.01-1.346 1.106-2.453 2.48-2.459z"></path></mask></defs><g><g><g filter="url(#7ue8a)"><path fill="none" d="M14.003 42.767V26.331c.064-.47.162-.937.19-1.407.312-5.303 3.683-9.313 8.823-10.426 1.092-.235 2.213-.333 3.322-.494h16.446c.435.065.867.163 1.304.187 6.093.334 10.637 4.727 10.788 10.802.16 6.394.165 12.796-.006 19.189-.161 5.974-4.689 10.502-10.666 10.663-6.432.172-12.872.157-19.305.001-5.312-.127-9.35-3.698-10.422-8.845-.22-1.065-.32-2.156-.474-3.234zm20.57 8.444v-.013c3.014 0 6.03.075 9.04-.021 2.453-.081 4.632-.925 6.135-3.012 1.014-1.407 1.453-3.036 1.466-4.733.043-5.853.11-11.706-.003-17.556-.098-5.013-2.904-7.855-7.892-7.967a392.57 392.57 0 0 0-17.462-.001c-5.038.112-7.838 2.895-7.947 7.902a401.8 401.8 0 0 0 .003 17.554c.106 4.869 2.972 7.664 7.826 7.828 2.942.099 5.888.019 8.833.019zm-.105-6.133c-5.892-.055-10.527-4.777-10.457-10.647.072-5.889 4.802-10.505 10.68-10.423 5.852.08 10.44 4.755 10.406 10.595-.036 5.883-4.753 10.533-10.629 10.475zm6.902-10.513c.004-3.827-2.997-6.833-6.82-6.83-3.824.003-6.816 3.012-6.807 6.84a6.752 6.752 0 0 0 6.766 6.78c3.832.014 6.856-2.981 6.86-6.79zm4.14-13.428c1.412-.008 2.463 1.029 2.468 2.433.003 1.374-1.092 2.494-2.444 2.498-1.328.003-2.495-1.148-2.505-2.472-.01-1.346 1.106-2.453 2.48-2.459z" mask="url(&quot;#7ue8b&quot;)"></path><path fill="#c5339a" fill-opacity=".5" d="M14.003 42.767V26.331c.064-.47.162-.937.19-1.407.312-5.303 3.683-9.313 8.823-10.426 1.092-.235 2.213-.333 3.322-.494h16.446c.435.065.867.163 1.304.187 6.093.334 10.637 4.727 10.788 10.802.16 6.394.165 12.796-.006 19.189-.161 5.974-4.689 10.502-10.666 10.663-6.432.172-12.872.157-19.305.001-5.312-.127-9.35-3.698-10.422-8.845-.22-1.065-.32-2.156-.474-3.234zm20.57 8.444v-.013c3.014 0 6.03.075 9.04-.021 2.453-.081 4.632-.925 6.135-3.012 1.014-1.407 1.453-3.036 1.466-4.733.043-5.853.11-11.706-.003-17.556-.098-5.013-2.904-7.855-7.892-7.967a392.57 392.57 0 0 0-17.462-.001c-5.038.112-7.838 2.895-7.947 7.902a401.8 401.8 0 0 0 .003 17.554c.106 4.869 2.972 7.664 7.826 7.828 2.942.099 5.888.019 8.833.019zm-.105-6.133c-5.892-.055-10.527-4.777-10.457-10.647.072-5.889 4.802-10.505 10.68-10.423 5.852.08 10.44 4.755 10.406 10.595-.036 5.883-4.753 10.533-10.629 10.475zm6.902-10.513c.004-3.827-2.997-6.833-6.82-6.83-3.824.003-6.816 3.012-6.807 6.84a6.752 6.752 0 0 0 6.766 6.78c3.832.014 6.856-2.981 6.86-6.79zm4.14-13.428c1.412-.008 2.463 1.029 2.468 2.433.003 1.374-1.092 2.494-2.444 2.498-1.328.003-2.495-1.148-2.505-2.472-.01-1.346 1.106-2.453 2.48-2.459z"></path></g><g filter="url(#7ue8a)"><path fill="none" d="M14.003 42.767V26.331c.064-.47.162-.937.19-1.407.312-5.303 3.683-9.313 8.823-10.426 1.092-.235 2.213-.333 3.322-.494h16.446c.435.065.867.163 1.304.187 6.093.334 10.637 4.727 10.788 10.802.16 6.394.165 12.796-.006 19.189-.161 5.974-4.689 10.502-10.666 10.663-6.432.172-12.872.157-19.305.001-5.312-.127-9.35-3.698-10.422-8.845-.22-1.065-.32-2.156-.474-3.234zm20.57 8.444v-.013c3.014 0 6.03.075 9.04-.021 2.453-.081 4.632-.925 6.135-3.012 1.014-1.407 1.453-3.036 1.466-4.733.043-5.853.11-11.706-.003-17.556-.098-5.013-2.904-7.855-7.892-7.967a392.57 392.57 0 0 0-17.462-.001c-5.038.112-7.838 2.895-7.947 7.902a401.8 401.8 0 0 0 .003 17.554c.106 4.869 2.972 7.664 7.826 7.828 2.942.099 5.888.019 8.833.019zm-.105-6.133c-5.892-.055-10.527-4.777-10.457-10.647.072-5.889 4.802-10.505 10.68-10.423 5.852.08 10.44 4.755 10.406 10.595-.036 5.883-4.753 10.533-10.629 10.475zm6.902-10.513c.004-3.827-2.997-6.833-6.82-6.83-3.824.003-6.816 3.012-6.807 6.84a6.752 6.752 0 0 0 6.766 6.78c3.832.014 6.856-2.981 6.86-6.79zm4.14-13.428c1.412-.008 2.463 1.029 2.468 2.433.003 1.374-1.092 2.494-2.444 2.498-1.328.003-2.495-1.148-2.505-2.472-.01-1.346 1.106-2.453 2.48-2.459z" mask="url(&quot;#7ue8b&quot;)"></path><path fill="#c5339a" fill-opacity=".5" d="M14.003 42.767V26.331c.064-.47.162-.937.19-1.407.312-5.303 3.683-9.313 8.823-10.426 1.092-.235 2.213-.333 3.322-.494h16.446c.435.065.867.163 1.304.187 6.093.334 10.637 4.727 10.788 10.802.16 6.394.165 12.796-.006 19.189-.161 5.974-4.689 10.502-10.666 10.663-6.432.172-12.872.157-19.305.001-5.312-.127-9.35-3.698-10.422-8.845-.22-1.065-.32-2.156-.474-3.234zm20.57 8.444v-.013c3.014 0 6.03.075 9.04-.021 2.453-.081 4.632-.925 6.135-3.012 1.014-1.407 1.453-3.036 1.466-4.733.043-5.853.11-11.706-.003-17.556-.098-5.013-2.904-7.855-7.892-7.967a392.57 392.57 0 0 0-17.462-.001c-5.038.112-7.838 2.895-7.947 7.902a401.8 401.8 0 0 0 .003 17.554c.106 4.869 2.972 7.664 7.826 7.828 2.942.099 5.888.019 8.833.019zm-.105-6.133c-5.892-.055-10.527-4.777-10.457-10.647.072-5.889 4.802-10.505 10.68-10.423 5.852.08 10.44 4.755 10.406 10.595-.036 5.883-4.753 10.533-10.629 10.475zm6.902-10.513c.004-3.827-2.997-6.833-6.82-6.83-3.824.003-6.816 3.012-6.807 6.84a6.752 6.752 0 0 0 6.766 6.78c3.832.014 6.856-2.981 6.86-6.79zm4.14-13.428c1.412-.008 2.463 1.029 2.468 2.433.003 1.374-1.092 2.494-2.444 2.498-1.328.003-2.495-1.148-2.505-2.472-.01-1.346 1.106-2.453 2.48-2.459z"></path></g><path fill="#e2d21a" d="M14.003 42.767V26.331c.064-.47.162-.937.19-1.407.312-5.303 3.683-9.313 8.823-10.426 1.092-.235 2.213-.333 3.322-.494h16.446c.435.065.867.163 1.304.187 6.093.334 10.637 4.727 10.788 10.802.16 6.394.165 12.796-.006 19.189-.161 5.974-4.689 10.502-10.666 10.663-6.432.172-12.872.157-19.305.001-5.312-.127-9.35-3.698-10.422-8.845-.22-1.065-.32-2.156-.474-3.234zm20.57 8.444v-.013c3.014 0 6.03.075 9.04-.021 2.453-.081 4.632-.925 6.135-3.012 1.014-1.407 1.453-3.036 1.466-4.733.043-5.853.11-11.706-.003-17.556-.098-5.013-2.904-7.855-7.892-7.967a392.57 392.57 0 0 0-17.462-.001c-5.038.112-7.838 2.895-7.947 7.902a401.8 401.8 0 0 0 .003 17.554c.106 4.869 2.972 7.664 7.826 7.828 2.942.099 5.888.019 8.833.019zm-.105-6.133c-5.892-.055-10.527-4.777-10.457-10.647.072-5.889 4.802-10.505 10.68-10.423 5.852.08 10.44 4.755 10.406 10.595-.036 5.883-4.753 10.533-10.629 10.475zm6.902-10.513c.004-3.827-2.997-6.833-6.82-6.83-3.824.003-6.816 3.012-6.807 6.84a6.752 6.752 0 0 0 6.766 6.78c3.832.014 6.856-2.981 6.86-6.79zm4.14-13.428c1.412-.008 2.463 1.029 2.468 2.433.003 1.374-1.092 2.494-2.444 2.498-1.328.003-2.495-1.148-2.505-2.472-.01-1.346 1.106-2.453 2.48-2.459z"></path><path fill="url(#7ue8c)" d="M14.003 42.767V26.331c.064-.47.162-.937.19-1.407.312-5.303 3.683-9.313 8.823-10.426 1.092-.235 2.213-.333 3.322-.494h16.446c.435.065.867.163 1.304.187 6.093.334 10.637 4.727 10.788 10.802.16 6.394.165 12.796-.006 19.189-.161 5.974-4.689 10.502-10.666 10.663-6.432.172-12.872.157-19.305.001-5.312-.127-9.35-3.698-10.422-8.845-.22-1.065-.32-2.156-.474-3.234zm20.57 8.444v-.013c3.014 0 6.03.075 9.04-.021 2.453-.081 4.632-.925 6.135-3.012 1.014-1.407 1.453-3.036 1.466-4.733.043-5.853.11-11.706-.003-17.556-.098-5.013-2.904-7.855-7.892-7.967a392.57 392.57 0 0 0-17.462-.001c-5.038.112-7.838 2.895-7.947 7.902a401.8 401.8 0 0 0 .003 17.554c.106 4.869 2.972 7.664 7.826 7.828 2.942.099 5.888.019 8.833.019zm-.105-6.133c-5.892-.055-10.527-4.777-10.457-10.647.072-5.889 4.802-10.505 10.68-10.423 5.852.08 10.44 4.755 10.406 10.595-.036 5.883-4.753 10.533-10.629 10.475zm6.902-10.513c.004-3.827-2.997-6.833-6.82-6.83-3.824.003-6.816 3.012-6.807 6.84a6.752 6.752 0 0 0 6.766 6.78c3.832.014 6.856-2.981 6.86-6.79zm4.14-13.428c1.412-.008 2.463 1.029 2.468 2.433.003 1.374-1.092 2.494-2.444 2.498-1.328.003-2.495-1.148-2.505-2.472-.01-1.346 1.106-2.453 2.48-2.459z"></path><path fill="#fff" fill-opacity=".46" d="M14 56V13h41v43zm.003-12.233c.154 1.078.254 2.169.474 3.234 1.072 5.146 5.11 8.718 10.422 8.845 6.433.156 12.873.171 19.305 0 5.977-.162 10.505-4.69 10.666-10.664.171-6.393.167-12.795.006-19.19-.151-6.074-4.695-10.467-10.788-10.8-.437-.025-.87-.123-1.304-.188H26.338c-1.11.161-2.23.259-3.322.494-5.14 1.113-8.51 5.123-8.823 10.426-.028.47-.126.938-.19 1.407v16.436zm11.736 8.425c-4.854-.164-7.72-2.959-7.826-7.828a401.8 401.8 0 0 1-.003-17.554c.109-5.007 2.909-7.79 7.947-7.902a392.57 392.57 0 0 1 17.462.001c4.988.112 7.794 2.954 7.892 7.967.114 5.85.046 11.703.003 17.555-.013 1.698-.452 3.327-1.466 4.734-1.503 2.087-3.682 2.93-6.136 3.012-3.01.096-6.025.021-9.04.021v.013c-2.945 0-5.891.08-8.833-.019zm19.358-16.59c.035-5.84-4.554-10.514-10.405-10.594-5.879-.082-10.609 4.534-10.681 10.423-.07 5.87 4.565 10.592 10.457 10.647 5.876.058 10.593-4.592 10.629-10.475zm-3.727-.037c-.005 3.809-3.029 6.804-6.86 6.79a6.752 6.752 0 0 1-6.767-6.78c-.009-3.828 2.983-6.837 6.807-6.84 3.823-.003 6.824 3.003 6.82 6.83zm1.66-10.969c.01 1.324 1.176 2.475 2.504 2.472 1.352-.004 2.447-1.124 2.444-2.498-.005-1.404-1.056-2.441-2.468-2.433-1.375.006-2.491 1.113-2.48 2.459z" filter="url(#7ue8d)" mask="url(&quot;#7ue8e&quot;)"></path></g></g></svg>