<svg xmlns="http://www.w3.org/2000/svg" width="71" height="67" viewBox="0 0 71 67"><defs><mask id="qeelb" width="2.02" height="2.02" x="-1.01" y="-1.01"><path fill="#fff" d="M12.6 13.6h46.8v38.8H12.6z"></path><path d="M57.792 14.75c-.759 2.24-2.076 3.898-3.91 5.176 1.77-.152 3.432-.665 5.113-1.276-.352.473-.659.995-1.07 1.411a111.348 111.348 0 0 1-3.262 3.14c-.218.204-.32.381-.314.69.122 7.02-2.063 13.246-6.476 18.643-4.108 5.025-9.415 8.029-15.77 9.069-6.181 1.013-12.079.076-17.618-2.935a16.975 16.975 0 0 1-1.48-.92c5.076.406 9.67-.845 13.809-4.001-4.33-.375-7.231-2.565-8.842-6.685 1.464.229 2.816.209 4.242-.174-2.656-.658-4.688-2.07-6.1-4.344-.959-1.542-1.434-3.229-1.418-5.14 1.324.644 2.652 1.103 4.23 1.141-2.407-1.779-3.803-4.049-4.098-6.918-.23-2.248.269-4.33 1.231-5.797 5.115 6.073 11.593 9.417 19.509 9.977-.06-.57-.141-1.09-.166-1.612-.211-4.452 2.25-8.238 6.443-9.647 3.496-1.174 6.686-.43 9.442 2.05.366.328.651.438 1.14.313 1.716-.439 3.357-1.055 4.904-1.926.117-.065.238-.121.46-.235z"></path></mask><filter id="qeela" width="106" height="98" x="-17" y="-16" filterUnits="userSpaceOnUse"><feOffset in="SourceGraphic" result="FeOffset1072Out"></feOffset><feGaussianBlur in="FeOffset1072Out" result="FeGaussianBlur1073Out" stdDeviation="7.840000000000001 7.840000000000001"></feGaussianBlur></filter><filter id="qeelc" width="200%" height="200%" x="-50%" y="-50%"><feGaussianBlur in="SourceGraphic" result="FeGaussianBlur1084Out" stdDeviation="0 0"></feGaussianBlur></filter><mask id="qeeld"><path fill="#fff" d="M57.792 14.75c-.759 2.24-2.076 3.898-3.91 5.176 1.77-.152 3.432-.665 5.113-1.276-.352.473-.659.995-1.07 1.411a111.348 111.348 0 0 1-3.262 3.14c-.218.204-.32.381-.314.69.122 7.02-2.063 13.246-6.476 18.643-4.108 5.025-9.415 8.029-15.77 9.069-6.181 1.013-12.079.076-17.618-2.935a16.975 16.975 0 0 1-1.48-.92c5.076.406 9.67-.845 13.809-4.001-4.33-.375-7.231-2.565-8.842-6.685 1.464.229 2.816.209 4.242-.174-2.656-.658-4.688-2.07-6.1-4.344-.959-1.542-1.434-3.229-1.418-5.14 1.324.644 2.652 1.103 4.23 1.141-2.407-1.779-3.803-4.049-4.098-6.918-.23-2.248.269-4.33 1.231-5.797 5.115 6.073 11.593 9.417 19.509 9.977-.06-.57-.141-1.09-.166-1.612-.211-4.452 2.25-8.238 6.443-9.647 3.496-1.174 6.686-.43 9.442 2.05.366.328.651.438 1.14.313 1.716-.439 3.357-1.055 4.904-1.926.117-.065.238-.121.46-.235z"></path></mask></defs><g><g><g filter="url(#qeela)"><path fill="none" stroke="#33aefd" stroke-opacity=".3" stroke-width=".8" d="M57.792 14.75c-.759 2.24-2.076 3.898-3.91 5.176 1.77-.152 3.432-.665 5.113-1.276-.352.473-.659.995-1.07 1.411a111.348 111.348 0 0 1-3.262 3.14c-.218.204-.32.381-.314.69.122 7.02-2.063 13.246-6.476 18.643-4.108 5.025-9.415 8.029-15.77 9.069-6.181 1.013-12.079.076-17.618-2.935a16.975 16.975 0 0 1-1.48-.92c5.076.406 9.67-.845 13.809-4.001-4.33-.375-7.231-2.565-8.842-6.685 1.464.229 2.816.209 4.242-.174-2.656-.658-4.688-2.07-6.1-4.344-.959-1.542-1.434-3.229-1.418-5.14 1.324.644 2.652 1.103 4.23 1.141-2.407-1.779-3.803-4.049-4.098-6.918-.23-2.248.269-4.33 1.231-5.797 5.115 6.073 11.593 9.417 19.509 9.977-.06-.57-.141-1.09-.166-1.612-.211-4.452 2.25-8.238 6.443-9.647 3.496-1.174 6.686-.43 9.442 2.05.366.328.651.438 1.14.313 1.716-.439 3.357-1.055 4.904-1.926.117-.065.238-.121.46-.235z" mask="url(&quot;#qeelb&quot;)"></path><path fill="#33aefd" fill-opacity=".3" d="M57.792 14.75c-.759 2.24-2.076 3.898-3.91 5.176 1.77-.152 3.432-.665 5.113-1.276-.352.473-.659.995-1.07 1.411a111.348 111.348 0 0 1-3.262 3.14c-.218.204-.32.381-.314.69.122 7.02-2.063 13.246-6.476 18.643-4.108 5.025-9.415 8.029-15.77 9.069-6.181 1.013-12.079.076-17.618-2.935a16.975 16.975 0 0 1-1.48-.92c5.076.406 9.67-.845 13.809-4.001-4.33-.375-7.231-2.565-8.842-6.685 1.464.229 2.816.209 4.242-.174-2.656-.658-4.688-2.07-6.1-4.344-.959-1.542-1.434-3.229-1.418-5.14 1.324.644 2.652 1.103 4.23 1.141-2.407-1.779-3.803-4.049-4.098-6.918-.23-2.248.269-4.33 1.231-5.797 5.115 6.073 11.593 9.417 19.509 9.977-.06-.57-.141-1.09-.166-1.612-.211-4.452 2.25-8.238 6.443-9.647 3.496-1.174 6.686-.43 9.442 2.05.366.328.651.438 1.14.313 1.716-.439 3.357-1.055 4.904-1.926.117-.065.238-.121.46-.235z"></path></g><g filter="url(#qeela)"><path fill="none" stroke="#33aefd" stroke-opacity=".3" stroke-width=".8" d="M57.792 14.75c-.759 2.24-2.076 3.898-3.91 5.176 1.77-.152 3.432-.665 5.113-1.276-.352.473-.659.995-1.07 1.411a111.348 111.348 0 0 1-3.262 3.14c-.218.204-.32.381-.314.69.122 7.02-2.063 13.246-6.476 18.643-4.108 5.025-9.415 8.029-15.77 9.069-6.181 1.013-12.079.076-17.618-2.935a16.975 16.975 0 0 1-1.48-.92c5.076.406 9.67-.845 13.809-4.001-4.33-.375-7.231-2.565-8.842-6.685 1.464.229 2.816.209 4.242-.174-2.656-.658-4.688-2.07-6.1-4.344-.959-1.542-1.434-3.229-1.418-5.14 1.324.644 2.652 1.103 4.23 1.141-2.407-1.779-3.803-4.049-4.098-6.918-.23-2.248.269-4.33 1.231-5.797 5.115 6.073 11.593 9.417 19.509 9.977-.06-.57-.141-1.09-.166-1.612-.211-4.452 2.25-8.238 6.443-9.647 3.496-1.174 6.686-.43 9.442 2.05.366.328.651.438 1.14.313 1.716-.439 3.357-1.055 4.904-1.926.117-.065.238-.121.46-.235z" mask="url(&quot;#qeelb&quot;)"></path><path fill="#33aefd" fill-opacity=".3" d="M57.792 14.75c-.759 2.24-2.076 3.898-3.91 5.176 1.77-.152 3.432-.665 5.113-1.276-.352.473-.659.995-1.07 1.411a111.348 111.348 0 0 1-3.262 3.14c-.218.204-.32.381-.314.69.122 7.02-2.063 13.246-6.476 18.643-4.108 5.025-9.415 8.029-15.77 9.069-6.181 1.013-12.079.076-17.618-2.935a16.975 16.975 0 0 1-1.48-.92c5.076.406 9.67-.845 13.809-4.001-4.33-.375-7.231-2.565-8.842-6.685 1.464.229 2.816.209 4.242-.174-2.656-.658-4.688-2.07-6.1-4.344-.959-1.542-1.434-3.229-1.418-5.14 1.324.644 2.652 1.103 4.23 1.141-2.407-1.779-3.803-4.049-4.098-6.918-.23-2.248.269-4.33 1.231-5.797 5.115 6.073 11.593 9.417 19.509 9.977-.06-.57-.141-1.09-.166-1.612-.211-4.452 2.25-8.238 6.443-9.647 3.496-1.174 6.686-.43 9.442 2.05.366.328.651.438 1.14.313 1.716-.439 3.357-1.055 4.904-1.926.117-.065.238-.121.46-.235z"></path></g><path fill="#33aefd" d="M57.792 14.75c-.759 2.24-2.076 3.898-3.91 5.176 1.77-.152 3.432-.665 5.113-1.276-.352.473-.659.995-1.07 1.411a111.348 111.348 0 0 1-3.262 3.14c-.218.204-.32.381-.314.69.122 7.02-2.063 13.246-6.476 18.643-4.108 5.025-9.415 8.029-15.77 9.069-6.181 1.013-12.079.076-17.618-2.935a16.975 16.975 0 0 1-1.48-.92c5.076.406 9.67-.845 13.809-4.001-4.33-.375-7.231-2.565-8.842-6.685 1.464.229 2.816.209 4.242-.174-2.656-.658-4.688-2.07-6.1-4.344-.959-1.542-1.434-3.229-1.418-5.14 1.324.644 2.652 1.103 4.23 1.141-2.407-1.779-3.803-4.049-4.098-6.918-.23-2.248.269-4.33 1.231-5.797 5.115 6.073 11.593 9.417 19.509 9.977-.06-.57-.141-1.09-.166-1.612-.211-4.452 2.25-8.238 6.443-9.647 3.496-1.174 6.686-.43 9.442 2.05.366.328.651.438 1.14.313 1.716-.439 3.357-1.055 4.904-1.926.117-.065.238-.121.46-.235z"></path><path fill="#fff" fill-opacity=".27" d="M13 53V13h46v40zm44.792-37.25c-.223.114-.344.17-.46.235-1.548.871-3.19 1.487-4.906 1.926-.488.125-.773.015-1.14-.314-2.755-2.48-5.945-3.223-9.44-2.049-4.194 1.409-6.655 5.195-6.444 9.647.025.523.105 1.042.166 1.612-7.916-.56-14.394-3.904-19.509-9.977-.962 1.467-1.462 3.549-1.23 5.797.294 2.869 1.69 5.139 4.097 6.918-1.578-.038-2.906-.497-4.23-1.142-.016 1.912.46 3.599 1.418 5.14 1.412 2.275 3.444 3.687 6.1 4.345-1.426.383-2.778.403-4.242.174 1.61 4.12 4.512 6.31 8.842 6.685-4.138 3.156-8.733 4.407-13.81 4 .497.339.978.65 1.48.921 5.54 3.011 11.438 3.948 17.62 2.935 6.354-1.04 11.661-4.044 15.77-9.069 4.412-5.397 6.597-11.623 6.475-18.644-.006-.308.096-.485.314-.69a111.348 111.348 0 0 0 3.263-3.139c.41-.416.717-.938 1.07-1.411-1.682.611-3.345 1.124-5.113 1.276 1.833-1.278 3.15-2.937 3.909-5.176z" filter="url(#qeelc)" mask="url(&quot;#qeeld&quot;)"></path></g></g></svg>